<mxfile host="app.diagrams.net" modified="2024-03-26T09:22:52.033Z" agent="Mozilla/5.0 (Macintosh; Intel Mac OS X 10_15_7) AppleWebKit/537.36 (KHTML, like Gecko) Chrome/122.0.0.0 Safari/537.36" version="24.0.6" etag="CYPmJBjqbRsD4AUcaVRn" type="github">
  <diagram name="第 1 页" id="Lia_vT9d6w0j3BdVJNJm">
    <mxGraphModel>
      <root>
        <mxCell id="0" />
        <mxCell id="1" parent="0" />
      </root>
    </mxGraphModel>
  </diagram>
</mxfile>
